<svg overflow="hidden" viewBox="0 0 96 96" xmlns="http://www.w3.org/2000/svg"><path d="M87.8 19h-64c-2.2 0-4 1.8-4 4v14.5c1.1-.3 2.4-.5 3.6-.5.8 0 1.6.1 2.4.2V25h60v38H51.9l-5.7 6h41.6c2.2 0 4-1.8 4-4V23c0-2.2-1.8-4-4-4" fill="#ffffff" class="fill-000000"></path><path d="M23.5 58c4.7 0 8.5-3.8 8.5-8.5S28.2 41 23.5 41 15 44.8 15 49.5c-.1 4.7 3.8 8.5 8.5 8.5" fill="#ffffff" class="fill-000000"></path><path d="M56.2 48.1c-1.3-2-3.9-2.5-5.9-1.3-.4.2-.6.6-.8.8L34.9 62.8c-1.4-.7-2.9-1.3-4.4-1.8-2.3-.4-4.7-.9-7-.9s-4.7.4-7 1.1c-3.4.9-6.4 2.6-8.9 4.7-.6.6-1.1 1.5-1.3 2.3L4.2 77h29.9v-.1l8.5-9.9 13.1-13.8c1.2-1.2 1.6-3.5.5-5.1" fill="#ffffff" class="fill-000000"></path></svg>